<svg xmlns="http://www.w3.org/2000/svg" viewBox="0 0 64 64" fill="none" aria-hidden="true">
  <defs><linearGradient id="g" x1="12" y1="10" x2="54" y2="54"><stop stop-color="#19D3FF"/><stop offset="1" stop-color="#8B5CF6"/></linearGradient></defs>
  <path d="M14 16c0-2.2 1.8-4 4-4h12c4 0 7 3 7 7v33c0-4-3-7-7-7H18c-2.2 0-4-1.8-4-4V16Z" stroke="url(#g)" stroke-width="3" stroke-linejoin="round"/>
  <path d="M37 19c0-4 3-7 7-7h2c2.2 0 4 1.8 4 4v25c0 2.2-1.8 4-4 4h-2c-4 0-7 3-7 7" stroke="url(#g)" stroke-width="3" stroke-linejoin="round"/>
  <path d="M22 22h8M22 31h8M44 22h2M44 31h2" stroke="#FFFFFF" stroke-opacity="0.9" stroke-width="2.5" stroke-linecap="round"/>
</svg>
